<svg xmlns="http://www.w3.org/2000/svg" viewBox="0 0 1920 1080" width="1920" height="1080">
<defs><linearGradient id="g" x1="0" y1="0" x2="1" y2="1"><stop offset="0" stop-color="#213140"/><stop offset="1" stop-color="#34506b"/></linearGradient></defs>
<rect width="1920" height="1080" fill="url(#g)"/>
<g stroke="rgba(255,255,255,0.06)" stroke-width="1"><line x1="0" y1="0" x2="0" y2="1080"/><line x1="40" y1="0" x2="40" y2="1080"/><line x1="80" y1="0" x2="80" y2="1080"/><line x1="120" y1="0" x2="120" y2="1080"/><line x1="160" y1="0" x2="160" y2="1080"/><line x1="200" y1="0" x2="200" y2="1080"/><line x1="240" y1="0" x2="240" y2="1080"/><line x1="280" y1="0" x2="280" y2="1080"/><line x1="320" y1="0" x2="320" y2="1080"/><line x1="360" y1="0" x2="360" y2="1080"/><line x1="400" y1="0" x2="400" y2="1080"/><line x1="440" y1="0" x2="440" y2="1080"/><line x1="480" y1="0" x2="480" y2="1080"/><line x1="520" y1="0" x2="520" y2="1080"/><line x1="560" y1="0" x2="560" y2="1080"/><line x1="600" y1="0" x2="600" y2="1080"/><line x1="640" y1="0" x2="640" y2="1080"/><line x1="680" y1="0" x2="680" y2="1080"/><line x1="720" y1="0" x2="720" y2="1080"/><line x1="760" y1="0" x2="760" y2="1080"/><line x1="800" y1="0" x2="800" y2="1080"/><line x1="840" y1="0" x2="840" y2="1080"/><line x1="880" y1="0" x2="880" y2="1080"/><line x1="920" y1="0" x2="920" y2="1080"/><line x1="960" y1="0" x2="960" y2="1080"/><line x1="1000" y1="0" x2="1000" y2="1080"/><line x1="1040" y1="0" x2="1040" y2="1080"/><line x1="1080" y1="0" x2="1080" y2="1080"/><line x1="1120" y1="0" x2="1120" y2="1080"/><line x1="1160" y1="0" x2="1160" y2="1080"/><line x1="1200" y1="0" x2="1200" y2="1080"/><line x1="1240" y1="0" x2="1240" y2="1080"/><line x1="1280" y1="0" x2="1280" y2="1080"/><line x1="1320" y1="0" x2="1320" y2="1080"/><line x1="1360" y1="0" x2="1360" y2="1080"/><line x1="1400" y1="0" x2="1400" y2="1080"/><line x1="1440" y1="0" x2="1440" y2="1080"/><line x1="1480" y1="0" x2="1480" y2="1080"/><line x1="1520" y1="0" x2="1520" y2="1080"/><line x1="1560" y1="0" x2="1560" y2="1080"/><line x1="1600" y1="0" x2="1600" y2="1080"/><line x1="1640" y1="0" x2="1640" y2="1080"/><line x1="1680" y1="0" x2="1680" y2="1080"/><line x1="1720" y1="0" x2="1720" y2="1080"/><line x1="1760" y1="0" x2="1760" y2="1080"/><line x1="1800" y1="0" x2="1800" y2="1080"/><line x1="1840" y1="0" x2="1840" y2="1080"/><line x1="1880" y1="0" x2="1880" y2="1080"/><line x1="0" y1="0" x2="1920" y2="0"/><line x1="0" y1="40" x2="1920" y2="40"/><line x1="0" y1="80" x2="1920" y2="80"/><line x1="0" y1="120" x2="1920" y2="120"/><line x1="0" y1="160" x2="1920" y2="160"/><line x1="0" y1="200" x2="1920" y2="200"/><line x1="0" y1="240" x2="1920" y2="240"/><line x1="0" y1="280" x2="1920" y2="280"/><line x1="0" y1="320" x2="1920" y2="320"/><line x1="0" y1="360" x2="1920" y2="360"/><line x1="0" y1="400" x2="1920" y2="400"/><line x1="0" y1="440" x2="1920" y2="440"/><line x1="0" y1="480" x2="1920" y2="480"/><line x1="0" y1="520" x2="1920" y2="520"/><line x1="0" y1="560" x2="1920" y2="560"/><line x1="0" y1="600" x2="1920" y2="600"/><line x1="0" y1="640" x2="1920" y2="640"/><line x1="0" y1="680" x2="1920" y2="680"/><line x1="0" y1="720" x2="1920" y2="720"/><line x1="0" y1="760" x2="1920" y2="760"/><line x1="0" y1="800" x2="1920" y2="800"/><line x1="0" y1="840" x2="1920" y2="840"/><line x1="0" y1="880" x2="1920" y2="880"/><line x1="0" y1="920" x2="1920" y2="920"/><line x1="0" y1="960" x2="1920" y2="960"/><line x1="0" y1="1000" x2="1920" y2="1000"/><line x1="0" y1="1040" x2="1920" y2="1040"/></g>
<g fill="rgba(0,0,0,0.25)" stroke="rgba(255,255,255,0.12)" stroke-width="1.5"><rect x="0" y="806" width="285" height="274"/><rect x="14" y="826" width="12" height="16" fill="rgba(255,255,255,0.10)" stroke="none"/><rect x="44" y="826" width="12" height="16" fill="rgba(255,255,255,0.10)" stroke="none"/><rect x="74" y="826" width="12" height="16" fill="rgba(255,255,255,0.10)" stroke="none"/><rect x="104" y="826" width="12" height="16" fill="rgba(255,255,255,0.10)" stroke="none"/><rect x="134" y="826" width="12" height="16" fill="rgba(255,255,255,0.10)" stroke="none"/><rect x="164" y="826" width="12" height="16" fill="rgba(255,255,255,0.10)" stroke="none"/><rect x="194" y="826" width="12" height="16" fill="rgba(255,255,255,0.10)" stroke="none"/><rect x="224" y="826" width="12" height="16" fill="rgba(255,255,255,0.10)" stroke="none"/><rect x="254" y="826" width="12" height="16" fill="rgba(255,255,255,0.10)" stroke="none"/><rect x="14" y="862" width="12" height="16" fill="rgba(255,255,255,0.10)" stroke="none"/><rect x="44" y="862" width="12" height="16" fill="rgba(255,255,255,0.10)" stroke="none"/><rect x="74" y="862" width="12" height="16" fill="rgba(255,255,255,0.10)" stroke="none"/><rect x="104" y="862" width="12" height="16" fill="rgba(255,255,255,0.10)" stroke="none"/><rect x="134" y="862" width="12" height="16" fill="rgba(255,255,255,0.10)" stroke="none"/><rect x="164" y="862" width="12" height="16" fill="rgba(255,255,255,0.10)" stroke="none"/><rect x="194" y="862" width="12" height="16" fill="rgba(255,255,255,0.10)" stroke="none"/><rect x="224" y="862" width="12" height="16" fill="rgba(255,255,255,0.10)" stroke="none"/><rect x="254" y="862" width="12" height="16" fill="rgba(255,255,255,0.10)" stroke="none"/><rect x="14" y="898" width="12" height="16" fill="rgba(255,255,255,0.10)" stroke="none"/><rect x="44" y="898" width="12" height="16" fill="rgba(255,255,255,0.10)" stroke="none"/><rect x="74" y="898" width="12" height="16" fill="rgba(255,255,255,0.10)" stroke="none"/><rect x="104" y="898" width="12" height="16" fill="rgba(255,255,255,0.10)" stroke="none"/><rect x="134" y="898" width="12" height="16" fill="rgba(255,255,255,0.10)" stroke="none"/><rect x="164" y="898" width="12" height="16" fill="rgba(255,255,255,0.10)" stroke="none"/><rect x="194" y="898" width="12" height="16" fill="rgba(255,255,255,0.10)" stroke="none"/><rect x="224" y="898" width="12" height="16" fill="rgba(255,255,255,0.10)" stroke="none"/><rect x="254" y="898" width="12" height="16" fill="rgba(255,255,255,0.10)" stroke="none"/><rect x="14" y="934" width="12" height="16" fill="rgba(255,255,255,0.10)" stroke="none"/><rect x="44" y="934" width="12" height="16" fill="rgba(255,255,255,0.10)" stroke="none"/><rect x="74" y="934" width="12" height="16" fill="rgba(255,255,255,0.10)" stroke="none"/><rect x="104" y="934" width="12" height="16" fill="rgba(255,255,255,0.10)" stroke="none"/><rect x="134" y="934" width="12" height="16" fill="rgba(255,255,255,0.10)" stroke="none"/><rect x="164" y="934" width="12" height="16" fill="rgba(255,255,255,0.10)" stroke="none"/><rect x="194" y="934" width="12" height="16" fill="rgba(255,255,255,0.10)" stroke="none"/><rect x="224" y="934" width="12" height="16" fill="rgba(255,255,255,0.10)" stroke="none"/><rect x="254" y="934" width="12" height="16" fill="rgba(255,255,255,0.10)" stroke="none"/><rect x="14" y="970" width="12" height="16" fill="rgba(255,255,255,0.10)" stroke="none"/><rect x="44" y="970" width="12" height="16" fill="rgba(255,255,255,0.10)" stroke="none"/><rect x="74" y="970" width="12" height="16" fill="rgba(255,255,255,0.10)" stroke="none"/><rect x="104" y="970" width="12" height="16" fill="rgba(255,255,255,0.10)" stroke="none"/><rect x="134" y="970" width="12" height="16" fill="rgba(255,255,255,0.10)" stroke="none"/><rect x="164" y="970" width="12" height="16" fill="rgba(255,255,255,0.10)" stroke="none"/><rect x="194" y="970" width="12" height="16" fill="rgba(255,255,255,0.10)" stroke="none"/><rect x="224" y="970" width="12" height="16" fill="rgba(255,255,255,0.10)" stroke="none"/><rect x="254" y="970" width="12" height="16" fill="rgba(255,255,255,0.10)" stroke="none"/><rect x="14" y="1006" width="12" height="16" fill="rgba(255,255,255,0.10)" stroke="none"/><rect x="44" y="1006" width="12" height="16" fill="rgba(255,255,255,0.10)" stroke="none"/><rect x="74" y="1006" width="12" height="16" fill="rgba(255,255,255,0.10)" stroke="none"/><rect x="104" y="1006" width="12" height="16" fill="rgba(255,255,255,0.10)" stroke="none"/><rect x="134" y="1006" width="12" height="16" fill="rgba(255,255,255,0.10)" stroke="none"/><rect x="164" y="1006" width="12" height="16" fill="rgba(255,255,255,0.10)" stroke="none"/><rect x="194" y="1006" width="12" height="16" fill="rgba(255,255,255,0.10)" stroke="none"/><rect x="224" y="1006" width="12" height="16" fill="rgba(255,255,255,0.10)" stroke="none"/><rect x="254" y="1006" width="12" height="16" fill="rgba(255,255,255,0.10)" stroke="none"/><rect x="14" y="1042" width="12" height="16" fill="rgba(255,255,255,0.10)" stroke="none"/><rect x="44" y="1042" width="12" height="16" fill="rgba(255,255,255,0.10)" stroke="none"/><rect x="74" y="1042" width="12" height="16" fill="rgba(255,255,255,0.10)" stroke="none"/><rect x="104" y="1042" width="12" height="16" fill="rgba(255,255,255,0.10)" stroke="none"/><rect x="134" y="1042" width="12" height="16" fill="rgba(255,255,255,0.10)" stroke="none"/><rect x="164" y="1042" width="12" height="16" fill="rgba(255,255,255,0.10)" stroke="none"/><rect x="194" y="1042" width="12" height="16" fill="rgba(255,255,255,0.10)" stroke="none"/><rect x="224" y="1042" width="12" height="16" fill="rgba(255,255,255,0.10)" stroke="none"/><rect x="254" y="1042" width="12" height="16" fill="rgba(255,255,255,0.10)" stroke="none"/><rect x="311" y="860" width="231" height="220"/><rect x="325" y="880" width="12" height="16" fill="rgba(255,255,255,0.10)" stroke="none"/><rect x="355" y="880" width="12" height="16" fill="rgba(255,255,255,0.10)" stroke="none"/><rect x="385" y="880" width="12" height="16" fill="rgba(255,255,255,0.10)" stroke="none"/><rect x="415" y="880" width="12" height="16" fill="rgba(255,255,255,0.10)" stroke="none"/><rect x="445" y="880" width="12" height="16" fill="rgba(255,255,255,0.10)" stroke="none"/><rect x="475" y="880" width="12" height="16" fill="rgba(255,255,255,0.10)" stroke="none"/><rect x="505" y="880" width="12" height="16" fill="rgba(255,255,255,0.10)" stroke="none"/><rect x="325" y="916" width="12" height="16" fill="rgba(255,255,255,0.10)" stroke="none"/><rect x="355" y="916" width="12" height="16" fill="rgba(255,255,255,0.10)" stroke="none"/><rect x="385" y="916" width="12" height="16" fill="rgba(255,255,255,0.10)" stroke="none"/><rect x="415" y="916" width="12" height="16" fill="rgba(255,255,255,0.10)" stroke="none"/><rect x="445" y="916" width="12" height="16" fill="rgba(255,255,255,0.10)" stroke="none"/><rect x="475" y="916" width="12" height="16" fill="rgba(255,255,255,0.10)" stroke="none"/><rect x="505" y="916" width="12" height="16" fill="rgba(255,255,255,0.10)" stroke="none"/><rect x="325" y="952" width="12" height="16" fill="rgba(255,255,255,0.10)" stroke="none"/><rect x="355" y="952" width="12" height="16" fill="rgba(255,255,255,0.10)" stroke="none"/><rect x="385" y="952" width="12" height="16" fill="rgba(255,255,255,0.10)" stroke="none"/><rect x="415" y="952" width="12" height="16" fill="rgba(255,255,255,0.10)" stroke="none"/><rect x="445" y="952" width="12" height="16" fill="rgba(255,255,255,0.10)" stroke="none"/><rect x="475" y="952" width="12" height="16" fill="rgba(255,255,255,0.10)" stroke="none"/><rect x="505" y="952" width="12" height="16" fill="rgba(255,255,255,0.10)" stroke="none"/><rect x="325" y="988" width="12" height="16" fill="rgba(255,255,255,0.10)" stroke="none"/><rect x="355" y="988" width="12" height="16" fill="rgba(255,255,255,0.10)" stroke="none"/><rect x="385" y="988" width="12" height="16" fill="rgba(255,255,255,0.10)" stroke="none"/><rect x="415" y="988" width="12" height="16" fill="rgba(255,255,255,0.10)" stroke="none"/><rect x="445" y="988" width="12" height="16" fill="rgba(255,255,255,0.10)" stroke="none"/><rect x="475" y="988" width="12" height="16" fill="rgba(255,255,255,0.10)" stroke="none"/><rect x="505" y="988" width="12" height="16" fill="rgba(255,255,255,0.10)" stroke="none"/><rect x="325" y="1024" width="12" height="16" fill="rgba(255,255,255,0.10)" stroke="none"/><rect x="355" y="1024" width="12" height="16" fill="rgba(255,255,255,0.10)" stroke="none"/><rect x="385" y="1024" width="12" height="16" fill="rgba(255,255,255,0.10)" stroke="none"/><rect x="415" y="1024" width="12" height="16" fill="rgba(255,255,255,0.10)" stroke="none"/><rect x="445" y="1024" width="12" height="16" fill="rgba(255,255,255,0.10)" stroke="none"/><rect x="475" y="1024" width="12" height="16" fill="rgba(255,255,255,0.10)" stroke="none"/><rect x="505" y="1024" width="12" height="16" fill="rgba(255,255,255,0.10)" stroke="none"/><rect x="563" y="807" width="225" height="273"/><rect x="577" y="827" width="12" height="16" fill="rgba(255,255,255,0.10)" stroke="none"/><rect x="607" y="827" width="12" height="16" fill="rgba(255,255,255,0.10)" stroke="none"/><rect x="637" y="827" width="12" height="16" fill="rgba(255,255,255,0.10)" stroke="none"/><rect x="667" y="827" width="12" height="16" fill="rgba(255,255,255,0.10)" stroke="none"/><rect x="697" y="827" width="12" height="16" fill="rgba(255,255,255,0.10)" stroke="none"/><rect x="727" y="827" width="12" height="16" fill="rgba(255,255,255,0.10)" stroke="none"/><rect x="757" y="827" width="12" height="16" fill="rgba(255,255,255,0.10)" stroke="none"/><rect x="577" y="863" width="12" height="16" fill="rgba(255,255,255,0.10)" stroke="none"/><rect x="607" y="863" width="12" height="16" fill="rgba(255,255,255,0.10)" stroke="none"/><rect x="637" y="863" width="12" height="16" fill="rgba(255,255,255,0.10)" stroke="none"/><rect x="667" y="863" width="12" height="16" fill="rgba(255,255,255,0.10)" stroke="none"/><rect x="697" y="863" width="12" height="16" fill="rgba(255,255,255,0.10)" stroke="none"/><rect x="727" y="863" width="12" height="16" fill="rgba(255,255,255,0.10)" stroke="none"/><rect x="757" y="863" width="12" height="16" fill="rgba(255,255,255,0.10)" stroke="none"/><rect x="577" y="899" width="12" height="16" fill="rgba(255,255,255,0.10)" stroke="none"/><rect x="607" y="899" width="12" height="16" fill="rgba(255,255,255,0.10)" stroke="none"/><rect x="637" y="899" width="12" height="16" fill="rgba(255,255,255,0.10)" stroke="none"/><rect x="667" y="899" width="12" height="16" fill="rgba(255,255,255,0.10)" stroke="none"/><rect x="697" y="899" width="12" height="16" fill="rgba(255,255,255,0.10)" stroke="none"/><rect x="727" y="899" width="12" height="16" fill="rgba(255,255,255,0.10)" stroke="none"/><rect x="757" y="899" width="12" height="16" fill="rgba(255,255,255,0.10)" stroke="none"/><rect x="577" y="935" width="12" height="16" fill="rgba(255,255,255,0.10)" stroke="none"/><rect x="607" y="935" width="12" height="16" fill="rgba(255,255,255,0.10)" stroke="none"/><rect x="637" y="935" width="12" height="16" fill="rgba(255,255,255,0.10)" stroke="none"/><rect x="667" y="935" width="12" height="16" fill="rgba(255,255,255,0.10)" stroke="none"/><rect x="697" y="935" width="12" height="16" fill="rgba(255,255,255,0.10)" stroke="none"/><rect x="727" y="935" width="12" height="16" fill="rgba(255,255,255,0.10)" stroke="none"/><rect x="757" y="935" width="12" height="16" fill="rgba(255,255,255,0.10)" stroke="none"/><rect x="577" y="971" width="12" height="16" fill="rgba(255,255,255,0.10)" stroke="none"/><rect x="607" y="971" width="12" height="16" fill="rgba(255,255,255,0.10)" stroke="none"/><rect x="637" y="971" width="12" height="16" fill="rgba(255,255,255,0.10)" stroke="none"/><rect x="667" y="971" width="12" height="16" fill="rgba(255,255,255,0.10)" stroke="none"/><rect x="697" y="971" width="12" height="16" fill="rgba(255,255,255,0.10)" stroke="none"/><rect x="727" y="971" width="12" height="16" fill="rgba(255,255,255,0.10)" stroke="none"/><rect x="757" y="971" width="12" height="16" fill="rgba(255,255,255,0.10)" stroke="none"/><rect x="577" y="1007" width="12" height="16" fill="rgba(255,255,255,0.10)" stroke="none"/><rect x="607" y="1007" width="12" height="16" fill="rgba(255,255,255,0.10)" stroke="none"/><rect x="637" y="1007" width="12" height="16" fill="rgba(255,255,255,0.10)" stroke="none"/><rect x="667" y="1007" width="12" height="16" fill="rgba(255,255,255,0.10)" stroke="none"/><rect x="697" y="1007" width="12" height="16" fill="rgba(255,255,255,0.10)" stroke="none"/><rect x="727" y="1007" width="12" height="16" fill="rgba(255,255,255,0.10)" stroke="none"/><rect x="757" y="1007" width="12" height="16" fill="rgba(255,255,255,0.10)" stroke="none"/><rect x="577" y="1043" width="12" height="16" fill="rgba(255,255,255,0.10)" stroke="none"/><rect x="607" y="1043" width="12" height="16" fill="rgba(255,255,255,0.10)" stroke="none"/><rect x="637" y="1043" width="12" height="16" fill="rgba(255,255,255,0.10)" stroke="none"/><rect x="667" y="1043" width="12" height="16" fill="rgba(255,255,255,0.10)" stroke="none"/><rect x="697" y="1043" width="12" height="16" fill="rgba(255,255,255,0.10)" stroke="none"/><rect x="727" y="1043" width="12" height="16" fill="rgba(255,255,255,0.10)" stroke="none"/><rect x="757" y="1043" width="12" height="16" fill="rgba(255,255,255,0.10)" stroke="none"/><rect x="800" y="808" width="222" height="272"/><rect x="814" y="828" width="12" height="16" fill="rgba(255,255,255,0.10)" stroke="none"/><rect x="844" y="828" width="12" height="16" fill="rgba(255,255,255,0.10)" stroke="none"/><rect x="874" y="828" width="12" height="16" fill="rgba(255,255,255,0.10)" stroke="none"/><rect x="904" y="828" width="12" height="16" fill="rgba(255,255,255,0.10)" stroke="none"/><rect x="934" y="828" width="12" height="16" fill="rgba(255,255,255,0.10)" stroke="none"/><rect x="964" y="828" width="12" height="16" fill="rgba(255,255,255,0.10)" stroke="none"/><rect x="994" y="828" width="12" height="16" fill="rgba(255,255,255,0.10)" stroke="none"/><rect x="814" y="864" width="12" height="16" fill="rgba(255,255,255,0.10)" stroke="none"/><rect x="844" y="864" width="12" height="16" fill="rgba(255,255,255,0.10)" stroke="none"/><rect x="874" y="864" width="12" height="16" fill="rgba(255,255,255,0.10)" stroke="none"/><rect x="904" y="864" width="12" height="16" fill="rgba(255,255,255,0.10)" stroke="none"/><rect x="934" y="864" width="12" height="16" fill="rgba(255,255,255,0.10)" stroke="none"/><rect x="964" y="864" width="12" height="16" fill="rgba(255,255,255,0.10)" stroke="none"/><rect x="994" y="864" width="12" height="16" fill="rgba(255,255,255,0.10)" stroke="none"/><rect x="814" y="900" width="12" height="16" fill="rgba(255,255,255,0.10)" stroke="none"/><rect x="844" y="900" width="12" height="16" fill="rgba(255,255,255,0.10)" stroke="none"/><rect x="874" y="900" width="12" height="16" fill="rgba(255,255,255,0.10)" stroke="none"/><rect x="904" y="900" width="12" height="16" fill="rgba(255,255,255,0.10)" stroke="none"/><rect x="934" y="900" width="12" height="16" fill="rgba(255,255,255,0.10)" stroke="none"/><rect x="964" y="900" width="12" height="16" fill="rgba(255,255,255,0.10)" stroke="none"/><rect x="994" y="900" width="12" height="16" fill="rgba(255,255,255,0.10)" stroke="none"/><rect x="814" y="936" width="12" height="16" fill="rgba(255,255,255,0.10)" stroke="none"/><rect x="844" y="936" width="12" height="16" fill="rgba(255,255,255,0.10)" stroke="none"/><rect x="874" y="936" width="12" height="16" fill="rgba(255,255,255,0.10)" stroke="none"/><rect x="904" y="936" width="12" height="16" fill="rgba(255,255,255,0.10)" stroke="none"/><rect x="934" y="936" width="12" height="16" fill="rgba(255,255,255,0.10)" stroke="none"/><rect x="964" y="936" width="12" height="16" fill="rgba(255,255,255,0.10)" stroke="none"/><rect x="994" y="936" width="12" height="16" fill="rgba(255,255,255,0.10)" stroke="none"/><rect x="814" y="972" width="12" height="16" fill="rgba(255,255,255,0.10)" stroke="none"/><rect x="844" y="972" width="12" height="16" fill="rgba(255,255,255,0.10)" stroke="none"/><rect x="874" y="972" width="12" height="16" fill="rgba(255,255,255,0.10)" stroke="none"/><rect x="904" y="972" width="12" height="16" fill="rgba(255,255,255,0.10)" stroke="none"/><rect x="934" y="972" width="12" height="16" fill="rgba(255,255,255,0.10)" stroke="none"/><rect x="964" y="972" width="12" height="16" fill="rgba(255,255,255,0.10)" stroke="none"/><rect x="994" y="972" width="12" height="16" fill="rgba(255,255,255,0.10)" stroke="none"/><rect x="814" y="1008" width="12" height="16" fill="rgba(255,255,255,0.10)" stroke="none"/><rect x="844" y="1008" width="12" height="16" fill="rgba(255,255,255,0.10)" stroke="none"/><rect x="874" y="1008" width="12" height="16" fill="rgba(255,255,255,0.10)" stroke="none"/><rect x="904" y="1008" width="12" height="16" fill="rgba(255,255,255,0.10)" stroke="none"/><rect x="934" y="1008" width="12" height="16" fill="rgba(255,255,255,0.10)" stroke="none"/><rect x="964" y="1008" width="12" height="16" fill="rgba(255,255,255,0.10)" stroke="none"/><rect x="994" y="1008" width="12" height="16" fill="rgba(255,255,255,0.10)" stroke="none"/><rect x="814" y="1044" width="12" height="16" fill="rgba(255,255,255,0.10)" stroke="none"/><rect x="844" y="1044" width="12" height="16" fill="rgba(255,255,255,0.10)" stroke="none"/><rect x="874" y="1044" width="12" height="16" fill="rgba(255,255,255,0.10)" stroke="none"/><rect x="904" y="1044" width="12" height="16" fill="rgba(255,255,255,0.10)" stroke="none"/><rect x="934" y="1044" width="12" height="16" fill="rgba(255,255,255,0.10)" stroke="none"/><rect x="964" y="1044" width="12" height="16" fill="rgba(255,255,255,0.10)" stroke="none"/><rect x="994" y="1044" width="12" height="16" fill="rgba(255,255,255,0.10)" stroke="none"/><rect x="1050" y="662" width="270" height="418"/><rect x="1064" y="682" width="12" height="16" fill="rgba(255,255,255,0.10)" stroke="none"/><rect x="1094" y="682" width="12" height="16" fill="rgba(255,255,255,0.10)" stroke="none"/><rect x="1124" y="682" width="12" height="16" fill="rgba(255,255,255,0.10)" stroke="none"/><rect x="1154" y="682" width="12" height="16" fill="rgba(255,255,255,0.10)" stroke="none"/><rect x="1184" y="682" width="12" height="16" fill="rgba(255,255,255,0.10)" stroke="none"/><rect x="1214" y="682" width="12" height="16" fill="rgba(255,255,255,0.10)" stroke="none"/><rect x="1244" y="682" width="12" height="16" fill="rgba(255,255,255,0.10)" stroke="none"/><rect x="1274" y="682" width="12" height="16" fill="rgba(255,255,255,0.10)" stroke="none"/><rect x="1064" y="718" width="12" height="16" fill="rgba(255,255,255,0.10)" stroke="none"/><rect x="1094" y="718" width="12" height="16" fill="rgba(255,255,255,0.10)" stroke="none"/><rect x="1124" y="718" width="12" height="16" fill="rgba(255,255,255,0.10)" stroke="none"/><rect x="1154" y="718" width="12" height="16" fill="rgba(255,255,255,0.10)" stroke="none"/><rect x="1184" y="718" width="12" height="16" fill="rgba(255,255,255,0.10)" stroke="none"/><rect x="1214" y="718" width="12" height="16" fill="rgba(255,255,255,0.10)" stroke="none"/><rect x="1244" y="718" width="12" height="16" fill="rgba(255,255,255,0.10)" stroke="none"/><rect x="1274" y="718" width="12" height="16" fill="rgba(255,255,255,0.10)" stroke="none"/><rect x="1064" y="754" width="12" height="16" fill="rgba(255,255,255,0.10)" stroke="none"/><rect x="1094" y="754" width="12" height="16" fill="rgba(255,255,255,0.10)" stroke="none"/><rect x="1124" y="754" width="12" height="16" fill="rgba(255,255,255,0.10)" stroke="none"/><rect x="1154" y="754" width="12" height="16" fill="rgba(255,255,255,0.10)" stroke="none"/><rect x="1184" y="754" width="12" height="16" fill="rgba(255,255,255,0.10)" stroke="none"/><rect x="1214" y="754" width="12" height="16" fill="rgba(255,255,255,0.10)" stroke="none"/><rect x="1244" y="754" width="12" height="16" fill="rgba(255,255,255,0.10)" stroke="none"/><rect x="1274" y="754" width="12" height="16" fill="rgba(255,255,255,0.10)" stroke="none"/><rect x="1064" y="790" width="12" height="16" fill="rgba(255,255,255,0.10)" stroke="none"/><rect x="1094" y="790" width="12" height="16" fill="rgba(255,255,255,0.10)" stroke="none"/><rect x="1124" y="790" width="12" height="16" fill="rgba(255,255,255,0.10)" stroke="none"/><rect x="1154" y="790" width="12" height="16" fill="rgba(255,255,255,0.10)" stroke="none"/><rect x="1184" y="790" width="12" height="16" fill="rgba(255,255,255,0.10)" stroke="none"/><rect x="1214" y="790" width="12" height="16" fill="rgba(255,255,255,0.10)" stroke="none"/><rect x="1244" y="790" width="12" height="16" fill="rgba(255,255,255,0.10)" stroke="none"/><rect x="1274" y="790" width="12" height="16" fill="rgba(255,255,255,0.10)" stroke="none"/><rect x="1064" y="826" width="12" height="16" fill="rgba(255,255,255,0.10)" stroke="none"/><rect x="1094" y="826" width="12" height="16" fill="rgba(255,255,255,0.10)" stroke="none"/><rect x="1124" y="826" width="12" height="16" fill="rgba(255,255,255,0.10)" stroke="none"/><rect x="1154" y="826" width="12" height="16" fill="rgba(255,255,255,0.10)" stroke="none"/><rect x="1184" y="826" width="12" height="16" fill="rgba(255,255,255,0.10)" stroke="none"/><rect x="1214" y="826" width="12" height="16" fill="rgba(255,255,255,0.10)" stroke="none"/><rect x="1244" y="826" width="12" height="16" fill="rgba(255,255,255,0.10)" stroke="none"/><rect x="1274" y="826" width="12" height="16" fill="rgba(255,255,255,0.10)" stroke="none"/><rect x="1064" y="862" width="12" height="16" fill="rgba(255,255,255,0.10)" stroke="none"/><rect x="1094" y="862" width="12" height="16" fill="rgba(255,255,255,0.10)" stroke="none"/><rect x="1124" y="862" width="12" height="16" fill="rgba(255,255,255,0.10)" stroke="none"/><rect x="1154" y="862" width="12" height="16" fill="rgba(255,255,255,0.10)" stroke="none"/><rect x="1184" y="862" width="12" height="16" fill="rgba(255,255,255,0.10)" stroke="none"/><rect x="1214" y="862" width="12" height="16" fill="rgba(255,255,255,0.10)" stroke="none"/><rect x="1244" y="862" width="12" height="16" fill="rgba(255,255,255,0.10)" stroke="none"/><rect x="1274" y="862" width="12" height="16" fill="rgba(255,255,255,0.10)" stroke="none"/><rect x="1064" y="898" width="12" height="16" fill="rgba(255,255,255,0.10)" stroke="none"/><rect x="1094" y="898" width="12" height="16" fill="rgba(255,255,255,0.10)" stroke="none"/><rect x="1124" y="898" width="12" height="16" fill="rgba(255,255,255,0.10)" stroke="none"/><rect x="1154" y="898" width="12" height="16" fill="rgba(255,255,255,0.10)" stroke="none"/><rect x="1184" y="898" width="12" height="16" fill="rgba(255,255,255,0.10)" stroke="none"/><rect x="1214" y="898" width="12" height="16" fill="rgba(255,255,255,0.10)" stroke="none"/><rect x="1244" y="898" width="12" height="16" fill="rgba(255,255,255,0.10)" stroke="none"/><rect x="1274" y="898" width="12" height="16" fill="rgba(255,255,255,0.10)" stroke="none"/><rect x="1064" y="934" width="12" height="16" fill="rgba(255,255,255,0.10)" stroke="none"/><rect x="1094" y="934" width="12" height="16" fill="rgba(255,255,255,0.10)" stroke="none"/><rect x="1124" y="934" width="12" height="16" fill="rgba(255,255,255,0.10)" stroke="none"/><rect x="1154" y="934" width="12" height="16" fill="rgba(255,255,255,0.10)" stroke="none"/><rect x="1184" y="934" width="12" height="16" fill="rgba(255,255,255,0.10)" stroke="none"/><rect x="1214" y="934" width="12" height="16" fill="rgba(255,255,255,0.10)" stroke="none"/><rect x="1244" y="934" width="12" height="16" fill="rgba(255,255,255,0.10)" stroke="none"/><rect x="1274" y="934" width="12" height="16" fill="rgba(255,255,255,0.10)" stroke="none"/><rect x="1064" y="970" width="12" height="16" fill="rgba(255,255,255,0.10)" stroke="none"/><rect x="1094" y="970" width="12" height="16" fill="rgba(255,255,255,0.10)" stroke="none"/><rect x="1124" y="970" width="12" height="16" fill="rgba(255,255,255,0.10)" stroke="none"/><rect x="1154" y="970" width="12" height="16" fill="rgba(255,255,255,0.10)" stroke="none"/><rect x="1184" y="970" width="12" height="16" fill="rgba(255,255,255,0.10)" stroke="none"/><rect x="1214" y="970" width="12" height="16" fill="rgba(255,255,255,0.10)" stroke="none"/><rect x="1244" y="970" width="12" height="16" fill="rgba(255,255,255,0.10)" stroke="none"/><rect x="1274" y="970" width="12" height="16" fill="rgba(255,255,255,0.10)" stroke="none"/><rect x="1064" y="1006" width="12" height="16" fill="rgba(255,255,255,0.10)" stroke="none"/><rect x="1094" y="1006" width="12" height="16" fill="rgba(255,255,255,0.10)" stroke="none"/><rect x="1124" y="1006" width="12" height="16" fill="rgba(255,255,255,0.10)" stroke="none"/><rect x="1154" y="1006" width="12" height="16" fill="rgba(255,255,255,0.10)" stroke="none"/><rect x="1184" y="1006" width="12" height="16" fill="rgba(255,255,255,0.10)" stroke="none"/><rect x="1214" y="1006" width="12" height="16" fill="rgba(255,255,255,0.10)" stroke="none"/><rect x="1244" y="1006" width="12" height="16" fill="rgba(255,255,255,0.10)" stroke="none"/><rect x="1274" y="1006" width="12" height="16" fill="rgba(255,255,255,0.10)" stroke="none"/><rect x="1064" y="1042" width="12" height="16" fill="rgba(255,255,255,0.10)" stroke="none"/><rect x="1094" y="1042" width="12" height="16" fill="rgba(255,255,255,0.10)" stroke="none"/><rect x="1124" y="1042" width="12" height="16" fill="rgba(255,255,255,0.10)" stroke="none"/><rect x="1154" y="1042" width="12" height="16" fill="rgba(255,255,255,0.10)" stroke="none"/><rect x="1184" y="1042" width="12" height="16" fill="rgba(255,255,255,0.10)" stroke="none"/><rect x="1214" y="1042" width="12" height="16" fill="rgba(255,255,255,0.10)" stroke="none"/><rect x="1244" y="1042" width="12" height="16" fill="rgba(255,255,255,0.10)" stroke="none"/><rect x="1274" y="1042" width="12" height="16" fill="rgba(255,255,255,0.10)" stroke="none"/><rect x="1339" y="639" width="284" height="441"/><rect x="1353" y="659" width="12" height="16" fill="rgba(255,255,255,0.10)" stroke="none"/><rect x="1383" y="659" width="12" height="16" fill="rgba(255,255,255,0.10)" stroke="none"/><rect x="1413" y="659" width="12" height="16" fill="rgba(255,255,255,0.10)" stroke="none"/><rect x="1443" y="659" width="12" height="16" fill="rgba(255,255,255,0.10)" stroke="none"/><rect x="1473" y="659" width="12" height="16" fill="rgba(255,255,255,0.10)" stroke="none"/><rect x="1503" y="659" width="12" height="16" fill="rgba(255,255,255,0.10)" stroke="none"/><rect x="1533" y="659" width="12" height="16" fill="rgba(255,255,255,0.10)" stroke="none"/><rect x="1563" y="659" width="12" height="16" fill="rgba(255,255,255,0.10)" stroke="none"/><rect x="1593" y="659" width="12" height="16" fill="rgba(255,255,255,0.10)" stroke="none"/><rect x="1353" y="695" width="12" height="16" fill="rgba(255,255,255,0.10)" stroke="none"/><rect x="1383" y="695" width="12" height="16" fill="rgba(255,255,255,0.10)" stroke="none"/><rect x="1413" y="695" width="12" height="16" fill="rgba(255,255,255,0.10)" stroke="none"/><rect x="1443" y="695" width="12" height="16" fill="rgba(255,255,255,0.10)" stroke="none"/><rect x="1473" y="695" width="12" height="16" fill="rgba(255,255,255,0.10)" stroke="none"/><rect x="1503" y="695" width="12" height="16" fill="rgba(255,255,255,0.10)" stroke="none"/><rect x="1533" y="695" width="12" height="16" fill="rgba(255,255,255,0.10)" stroke="none"/><rect x="1563" y="695" width="12" height="16" fill="rgba(255,255,255,0.10)" stroke="none"/><rect x="1593" y="695" width="12" height="16" fill="rgba(255,255,255,0.10)" stroke="none"/><rect x="1353" y="731" width="12" height="16" fill="rgba(255,255,255,0.10)" stroke="none"/><rect x="1383" y="731" width="12" height="16" fill="rgba(255,255,255,0.10)" stroke="none"/><rect x="1413" y="731" width="12" height="16" fill="rgba(255,255,255,0.10)" stroke="none"/><rect x="1443" y="731" width="12" height="16" fill="rgba(255,255,255,0.10)" stroke="none"/><rect x="1473" y="731" width="12" height="16" fill="rgba(255,255,255,0.10)" stroke="none"/><rect x="1503" y="731" width="12" height="16" fill="rgba(255,255,255,0.10)" stroke="none"/><rect x="1533" y="731" width="12" height="16" fill="rgba(255,255,255,0.10)" stroke="none"/><rect x="1563" y="731" width="12" height="16" fill="rgba(255,255,255,0.10)" stroke="none"/><rect x="1593" y="731" width="12" height="16" fill="rgba(255,255,255,0.10)" stroke="none"/><rect x="1353" y="767" width="12" height="16" fill="rgba(255,255,255,0.10)" stroke="none"/><rect x="1383" y="767" width="12" height="16" fill="rgba(255,255,255,0.10)" stroke="none"/><rect x="1413" y="767" width="12" height="16" fill="rgba(255,255,255,0.10)" stroke="none"/><rect x="1443" y="767" width="12" height="16" fill="rgba(255,255,255,0.10)" stroke="none"/><rect x="1473" y="767" width="12" height="16" fill="rgba(255,255,255,0.10)" stroke="none"/><rect x="1503" y="767" width="12" height="16" fill="rgba(255,255,255,0.10)" stroke="none"/><rect x="1533" y="767" width="12" height="16" fill="rgba(255,255,255,0.10)" stroke="none"/><rect x="1563" y="767" width="12" height="16" fill="rgba(255,255,255,0.10)" stroke="none"/><rect x="1593" y="767" width="12" height="16" fill="rgba(255,255,255,0.10)" stroke="none"/><rect x="1353" y="803" width="12" height="16" fill="rgba(255,255,255,0.10)" stroke="none"/><rect x="1383" y="803" width="12" height="16" fill="rgba(255,255,255,0.10)" stroke="none"/><rect x="1413" y="803" width="12" height="16" fill="rgba(255,255,255,0.10)" stroke="none"/><rect x="1443" y="803" width="12" height="16" fill="rgba(255,255,255,0.10)" stroke="none"/><rect x="1473" y="803" width="12" height="16" fill="rgba(255,255,255,0.10)" stroke="none"/><rect x="1503" y="803" width="12" height="16" fill="rgba(255,255,255,0.10)" stroke="none"/><rect x="1533" y="803" width="12" height="16" fill="rgba(255,255,255,0.10)" stroke="none"/><rect x="1563" y="803" width="12" height="16" fill="rgba(255,255,255,0.10)" stroke="none"/><rect x="1593" y="803" width="12" height="16" fill="rgba(255,255,255,0.10)" stroke="none"/><rect x="1353" y="839" width="12" height="16" fill="rgba(255,255,255,0.10)" stroke="none"/><rect x="1383" y="839" width="12" height="16" fill="rgba(255,255,255,0.10)" stroke="none"/><rect x="1413" y="839" width="12" height="16" fill="rgba(255,255,255,0.10)" stroke="none"/><rect x="1443" y="839" width="12" height="16" fill="rgba(255,255,255,0.10)" stroke="none"/><rect x="1473" y="839" width="12" height="16" fill="rgba(255,255,255,0.10)" stroke="none"/><rect x="1503" y="839" width="12" height="16" fill="rgba(255,255,255,0.10)" stroke="none"/><rect x="1533" y="839" width="12" height="16" fill="rgba(255,255,255,0.10)" stroke="none"/><rect x="1563" y="839" width="12" height="16" fill="rgba(255,255,255,0.10)" stroke="none"/><rect x="1593" y="839" width="12" height="16" fill="rgba(255,255,255,0.10)" stroke="none"/><rect x="1353" y="875" width="12" height="16" fill="rgba(255,255,255,0.10)" stroke="none"/><rect x="1383" y="875" width="12" height="16" fill="rgba(255,255,255,0.10)" stroke="none"/><rect x="1413" y="875" width="12" height="16" fill="rgba(255,255,255,0.10)" stroke="none"/><rect x="1443" y="875" width="12" height="16" fill="rgba(255,255,255,0.10)" stroke="none"/><rect x="1473" y="875" width="12" height="16" fill="rgba(255,255,255,0.10)" stroke="none"/><rect x="1503" y="875" width="12" height="16" fill="rgba(255,255,255,0.10)" stroke="none"/><rect x="1533" y="875" width="12" height="16" fill="rgba(255,255,255,0.10)" stroke="none"/><rect x="1563" y="875" width="12" height="16" fill="rgba(255,255,255,0.10)" stroke="none"/><rect x="1593" y="875" width="12" height="16" fill="rgba(255,255,255,0.10)" stroke="none"/><rect x="1353" y="911" width="12" height="16" fill="rgba(255,255,255,0.10)" stroke="none"/><rect x="1383" y="911" width="12" height="16" fill="rgba(255,255,255,0.10)" stroke="none"/><rect x="1413" y="911" width="12" height="16" fill="rgba(255,255,255,0.10)" stroke="none"/><rect x="1443" y="911" width="12" height="16" fill="rgba(255,255,255,0.10)" stroke="none"/><rect x="1473" y="911" width="12" height="16" fill="rgba(255,255,255,0.10)" stroke="none"/><rect x="1503" y="911" width="12" height="16" fill="rgba(255,255,255,0.10)" stroke="none"/><rect x="1533" y="911" width="12" height="16" fill="rgba(255,255,255,0.10)" stroke="none"/><rect x="1563" y="911" width="12" height="16" fill="rgba(255,255,255,0.10)" stroke="none"/><rect x="1593" y="911" width="12" height="16" fill="rgba(255,255,255,0.10)" stroke="none"/><rect x="1353" y="947" width="12" height="16" fill="rgba(255,255,255,0.10)" stroke="none"/><rect x="1383" y="947" width="12" height="16" fill="rgba(255,255,255,0.10)" stroke="none"/><rect x="1413" y="947" width="12" height="16" fill="rgba(255,255,255,0.10)" stroke="none"/><rect x="1443" y="947" width="12" height="16" fill="rgba(255,255,255,0.10)" stroke="none"/><rect x="1473" y="947" width="12" height="16" fill="rgba(255,255,255,0.10)" stroke="none"/><rect x="1503" y="947" width="12" height="16" fill="rgba(255,255,255,0.10)" stroke="none"/><rect x="1533" y="947" width="12" height="16" fill="rgba(255,255,255,0.10)" stroke="none"/><rect x="1563" y="947" width="12" height="16" fill="rgba(255,255,255,0.10)" stroke="none"/><rect x="1593" y="947" width="12" height="16" fill="rgba(255,255,255,0.10)" stroke="none"/><rect x="1353" y="983" width="12" height="16" fill="rgba(255,255,255,0.10)" stroke="none"/><rect x="1383" y="983" width="12" height="16" fill="rgba(255,255,255,0.10)" stroke="none"/><rect x="1413" y="983" width="12" height="16" fill="rgba(255,255,255,0.10)" stroke="none"/><rect x="1443" y="983" width="12" height="16" fill="rgba(255,255,255,0.10)" stroke="none"/><rect x="1473" y="983" width="12" height="16" fill="rgba(255,255,255,0.10)" stroke="none"/><rect x="1503" y="983" width="12" height="16" fill="rgba(255,255,255,0.10)" stroke="none"/><rect x="1533" y="983" width="12" height="16" fill="rgba(255,255,255,0.10)" stroke="none"/><rect x="1563" y="983" width="12" height="16" fill="rgba(255,255,255,0.10)" stroke="none"/><rect x="1593" y="983" width="12" height="16" fill="rgba(255,255,255,0.10)" stroke="none"/><rect x="1353" y="1019" width="12" height="16" fill="rgba(255,255,255,0.10)" stroke="none"/><rect x="1383" y="1019" width="12" height="16" fill="rgba(255,255,255,0.10)" stroke="none"/><rect x="1413" y="1019" width="12" height="16" fill="rgba(255,255,255,0.10)" stroke="none"/><rect x="1443" y="1019" width="12" height="16" fill="rgba(255,255,255,0.10)" stroke="none"/><rect x="1473" y="1019" width="12" height="16" fill="rgba(255,255,255,0.10)" stroke="none"/><rect x="1503" y="1019" width="12" height="16" fill="rgba(255,255,255,0.10)" stroke="none"/><rect x="1533" y="1019" width="12" height="16" fill="rgba(255,255,255,0.10)" stroke="none"/><rect x="1563" y="1019" width="12" height="16" fill="rgba(255,255,255,0.10)" stroke="none"/><rect x="1593" y="1019" width="12" height="16" fill="rgba(255,255,255,0.10)" stroke="none"/><rect x="1353" y="1055" width="12" height="16" fill="rgba(255,255,255,0.10)" stroke="none"/><rect x="1383" y="1055" width="12" height="16" fill="rgba(255,255,255,0.10)" stroke="none"/><rect x="1413" y="1055" width="12" height="16" fill="rgba(255,255,255,0.10)" stroke="none"/><rect x="1443" y="1055" width="12" height="16" fill="rgba(255,255,255,0.10)" stroke="none"/><rect x="1473" y="1055" width="12" height="16" fill="rgba(255,255,255,0.10)" stroke="none"/><rect x="1503" y="1055" width="12" height="16" fill="rgba(255,255,255,0.10)" stroke="none"/><rect x="1533" y="1055" width="12" height="16" fill="rgba(255,255,255,0.10)" stroke="none"/><rect x="1563" y="1055" width="12" height="16" fill="rgba(255,255,255,0.10)" stroke="none"/><rect x="1593" y="1055" width="12" height="16" fill="rgba(255,255,255,0.10)" stroke="none"/><rect x="1629" y="661" width="272" height="419"/><rect x="1643" y="681" width="12" height="16" fill="rgba(255,255,255,0.10)" stroke="none"/><rect x="1673" y="681" width="12" height="16" fill="rgba(255,255,255,0.10)" stroke="none"/><rect x="1703" y="681" width="12" height="16" fill="rgba(255,255,255,0.10)" stroke="none"/><rect x="1733" y="681" width="12" height="16" fill="rgba(255,255,255,0.10)" stroke="none"/><rect x="1763" y="681" width="12" height="16" fill="rgba(255,255,255,0.10)" stroke="none"/><rect x="1793" y="681" width="12" height="16" fill="rgba(255,255,255,0.10)" stroke="none"/><rect x="1823" y="681" width="12" height="16" fill="rgba(255,255,255,0.10)" stroke="none"/><rect x="1853" y="681" width="12" height="16" fill="rgba(255,255,255,0.10)" stroke="none"/><rect x="1643" y="717" width="12" height="16" fill="rgba(255,255,255,0.10)" stroke="none"/><rect x="1673" y="717" width="12" height="16" fill="rgba(255,255,255,0.10)" stroke="none"/><rect x="1703" y="717" width="12" height="16" fill="rgba(255,255,255,0.10)" stroke="none"/><rect x="1733" y="717" width="12" height="16" fill="rgba(255,255,255,0.10)" stroke="none"/><rect x="1763" y="717" width="12" height="16" fill="rgba(255,255,255,0.10)" stroke="none"/><rect x="1793" y="717" width="12" height="16" fill="rgba(255,255,255,0.10)" stroke="none"/><rect x="1823" y="717" width="12" height="16" fill="rgba(255,255,255,0.10)" stroke="none"/><rect x="1853" y="717" width="12" height="16" fill="rgba(255,255,255,0.10)" stroke="none"/><rect x="1643" y="753" width="12" height="16" fill="rgba(255,255,255,0.10)" stroke="none"/><rect x="1673" y="753" width="12" height="16" fill="rgba(255,255,255,0.10)" stroke="none"/><rect x="1703" y="753" width="12" height="16" fill="rgba(255,255,255,0.10)" stroke="none"/><rect x="1733" y="753" width="12" height="16" fill="rgba(255,255,255,0.10)" stroke="none"/><rect x="1763" y="753" width="12" height="16" fill="rgba(255,255,255,0.10)" stroke="none"/><rect x="1793" y="753" width="12" height="16" fill="rgba(255,255,255,0.10)" stroke="none"/><rect x="1823" y="753" width="12" height="16" fill="rgba(255,255,255,0.10)" stroke="none"/><rect x="1853" y="753" width="12" height="16" fill="rgba(255,255,255,0.10)" stroke="none"/><rect x="1643" y="789" width="12" height="16" fill="rgba(255,255,255,0.10)" stroke="none"/><rect x="1673" y="789" width="12" height="16" fill="rgba(255,255,255,0.10)" stroke="none"/><rect x="1703" y="789" width="12" height="16" fill="rgba(255,255,255,0.10)" stroke="none"/><rect x="1733" y="789" width="12" height="16" fill="rgba(255,255,255,0.10)" stroke="none"/><rect x="1763" y="789" width="12" height="16" fill="rgba(255,255,255,0.10)" stroke="none"/><rect x="1793" y="789" width="12" height="16" fill="rgba(255,255,255,0.10)" stroke="none"/><rect x="1823" y="789" width="12" height="16" fill="rgba(255,255,255,0.10)" stroke="none"/><rect x="1853" y="789" width="12" height="16" fill="rgba(255,255,255,0.10)" stroke="none"/><rect x="1643" y="825" width="12" height="16" fill="rgba(255,255,255,0.10)" stroke="none"/><rect x="1673" y="825" width="12" height="16" fill="rgba(255,255,255,0.10)" stroke="none"/><rect x="1703" y="825" width="12" height="16" fill="rgba(255,255,255,0.10)" stroke="none"/><rect x="1733" y="825" width="12" height="16" fill="rgba(255,255,255,0.10)" stroke="none"/><rect x="1763" y="825" width="12" height="16" fill="rgba(255,255,255,0.10)" stroke="none"/><rect x="1793" y="825" width="12" height="16" fill="rgba(255,255,255,0.10)" stroke="none"/><rect x="1823" y="825" width="12" height="16" fill="rgba(255,255,255,0.10)" stroke="none"/><rect x="1853" y="825" width="12" height="16" fill="rgba(255,255,255,0.10)" stroke="none"/><rect x="1643" y="861" width="12" height="16" fill="rgba(255,255,255,0.10)" stroke="none"/><rect x="1673" y="861" width="12" height="16" fill="rgba(255,255,255,0.10)" stroke="none"/><rect x="1703" y="861" width="12" height="16" fill="rgba(255,255,255,0.10)" stroke="none"/><rect x="1733" y="861" width="12" height="16" fill="rgba(255,255,255,0.10)" stroke="none"/><rect x="1763" y="861" width="12" height="16" fill="rgba(255,255,255,0.10)" stroke="none"/><rect x="1793" y="861" width="12" height="16" fill="rgba(255,255,255,0.10)" stroke="none"/><rect x="1823" y="861" width="12" height="16" fill="rgba(255,255,255,0.10)" stroke="none"/><rect x="1853" y="861" width="12" height="16" fill="rgba(255,255,255,0.10)" stroke="none"/><rect x="1643" y="897" width="12" height="16" fill="rgba(255,255,255,0.10)" stroke="none"/><rect x="1673" y="897" width="12" height="16" fill="rgba(255,255,255,0.10)" stroke="none"/><rect x="1703" y="897" width="12" height="16" fill="rgba(255,255,255,0.10)" stroke="none"/><rect x="1733" y="897" width="12" height="16" fill="rgba(255,255,255,0.10)" stroke="none"/><rect x="1763" y="897" width="12" height="16" fill="rgba(255,255,255,0.10)" stroke="none"/><rect x="1793" y="897" width="12" height="16" fill="rgba(255,255,255,0.10)" stroke="none"/><rect x="1823" y="897" width="12" height="16" fill="rgba(255,255,255,0.10)" stroke="none"/><rect x="1853" y="897" width="12" height="16" fill="rgba(255,255,255,0.10)" stroke="none"/><rect x="1643" y="933" width="12" height="16" fill="rgba(255,255,255,0.10)" stroke="none"/><rect x="1673" y="933" width="12" height="16" fill="rgba(255,255,255,0.10)" stroke="none"/><rect x="1703" y="933" width="12" height="16" fill="rgba(255,255,255,0.10)" stroke="none"/><rect x="1733" y="933" width="12" height="16" fill="rgba(255,255,255,0.10)" stroke="none"/><rect x="1763" y="933" width="12" height="16" fill="rgba(255,255,255,0.10)" stroke="none"/><rect x="1793" y="933" width="12" height="16" fill="rgba(255,255,255,0.10)" stroke="none"/><rect x="1823" y="933" width="12" height="16" fill="rgba(255,255,255,0.10)" stroke="none"/><rect x="1853" y="933" width="12" height="16" fill="rgba(255,255,255,0.10)" stroke="none"/><rect x="1643" y="969" width="12" height="16" fill="rgba(255,255,255,0.10)" stroke="none"/><rect x="1673" y="969" width="12" height="16" fill="rgba(255,255,255,0.10)" stroke="none"/><rect x="1703" y="969" width="12" height="16" fill="rgba(255,255,255,0.10)" stroke="none"/><rect x="1733" y="969" width="12" height="16" fill="rgba(255,255,255,0.10)" stroke="none"/><rect x="1763" y="969" width="12" height="16" fill="rgba(255,255,255,0.10)" stroke="none"/><rect x="1793" y="969" width="12" height="16" fill="rgba(255,255,255,0.10)" stroke="none"/><rect x="1823" y="969" width="12" height="16" fill="rgba(255,255,255,0.10)" stroke="none"/><rect x="1853" y="969" width="12" height="16" fill="rgba(255,255,255,0.10)" stroke="none"/><rect x="1643" y="1005" width="12" height="16" fill="rgba(255,255,255,0.10)" stroke="none"/><rect x="1673" y="1005" width="12" height="16" fill="rgba(255,255,255,0.10)" stroke="none"/><rect x="1703" y="1005" width="12" height="16" fill="rgba(255,255,255,0.10)" stroke="none"/><rect x="1733" y="1005" width="12" height="16" fill="rgba(255,255,255,0.10)" stroke="none"/><rect x="1763" y="1005" width="12" height="16" fill="rgba(255,255,255,0.10)" stroke="none"/><rect x="1793" y="1005" width="12" height="16" fill="rgba(255,255,255,0.10)" stroke="none"/><rect x="1823" y="1005" width="12" height="16" fill="rgba(255,255,255,0.10)" stroke="none"/><rect x="1853" y="1005" width="12" height="16" fill="rgba(255,255,255,0.10)" stroke="none"/><rect x="1643" y="1041" width="12" height="16" fill="rgba(255,255,255,0.10)" stroke="none"/><rect x="1673" y="1041" width="12" height="16" fill="rgba(255,255,255,0.10)" stroke="none"/><rect x="1703" y="1041" width="12" height="16" fill="rgba(255,255,255,0.10)" stroke="none"/><rect x="1733" y="1041" width="12" height="16" fill="rgba(255,255,255,0.10)" stroke="none"/><rect x="1763" y="1041" width="12" height="16" fill="rgba(255,255,255,0.10)" stroke="none"/><rect x="1793" y="1041" width="12" height="16" fill="rgba(255,255,255,0.10)" stroke="none"/><rect x="1823" y="1041" width="12" height="16" fill="rgba(255,255,255,0.10)" stroke="none"/><rect x="1853" y="1041" width="12" height="16" fill="rgba(255,255,255,0.10)" stroke="none"/></g>
<text x="50%" y="46%" text-anchor="middle" font-family="Inter,Arial,sans-serif" font-size="68" font-weight="700" fill="rgba(255,255,255,0.55)">Projetos estruturais</text>
</svg>